# xmcd
#
# Track frame offsets: 
#        220
#        14862
#        33117
#        49197
#        67212
#        84942
#        106362
#        123312
#        138807
#        155517
#        173052
#        191472
#
# Disc length: 2773 seconds
#
# Revision: 0
# Processed by: cddbd v1.5.2PL0 Copyright (c) Steve Scherf et al.
# Submitted via: ExactAudioCopyFreeDBPlugin 1.0
#
DISCID=9c0ad30c
DTITLE=ST12 - P.U.S.P.A
DYEAR=2008
DGENRE=Pop
TTITLE0=P.U.S.P.A
TTITLE1=Jangan Pernah Berubah
TTITLE2=Cari Pacar Lagi
TTITLE3=Putri Iklan
TTITLE4=SKJ
TTITLE5=Saat Terakhir
TTITLE6=Tak Dapat Apa-Apa (My Hot)
TTITLE7=Cinta Jangan Dinanti
TTITLE8=Cinta Tak Direstui
TTITLE9=Jalan Terbaik
TTITLE10=Rasa Yang Tertinggal
TTITLE11=Aku Masih Sayang
EXTD=
EXTT0=
EXTT1=
EXTT2=
EXTT3=
EXTT4=
EXTT5=
EXTT6=
EXTT7=
EXTT8=
EXTT9=
EXTT10=
EXTT11=
PLAYORDER=
